<svg width="344" height="122" viewBox="0 0 344 122" fill="none" xmlns="http://www.w3.org/2000/svg">
<path d="M61.8163 72L49.3363 24.96L36.7603 72H21.1123L1.81626 4.8H17.3683L30.0403 51.744L42.2323 4.8H57.0163L69.3043 51.552L81.8803 4.8H96.7603L77.3683 72H61.8163ZM128.945 73.152C110.321 73.152 94.289 60.192 94.289 38.112C94.289 16.128 110.897 3.36 129.041 3.36C147.281 3.36 163.793 15.936 163.793 38.112C163.793 60.096 147.377 73.152 128.945 73.152ZM129.041 59.808C139.697 59.808 147.569 51.456 147.569 38.112C147.569 24.96 139.601 16.704 129.041 16.704C118.385 16.704 110.417 24.96 110.417 38.112C110.417 51.36 118.385 59.808 129.041 59.808ZM193.363 47.712H184.147V72H168.787V4.8H199.891C216.883 4.8 224.083 14.496 224.083 25.92C224.083 36.096 218.323 42.624 210.835 45.216V45.408C211.603 46.752 212.179 47.616 213.235 49.536L226.003 72H208.243L195.763 49.056C195.091 47.904 194.899 47.712 193.363 47.712ZM184.147 17.28V35.232H197.971C204.883 35.232 208.435 31.68 208.435 26.304C208.435 20.832 204.787 17.28 197.971 17.28H184.147ZM230.268 72V4.8H245.916V58.944H276.348V72H230.268ZM280.312 72V4.8H305.368C326.776 4.8 340.792 15.744 340.792 38.016C340.792 59.424 326.68 72 305.272 72H280.312ZM295.96 59.136H303.736C317.56 59.136 324.76 51.264 324.76 38.112C324.76 25.056 317.56 17.664 303.736 17.664H295.96V59.136ZM192.344 108.76V115H167.528V81.4H192.056V87.64H175.16V94.696H190.712V100.792H175.16V108.76H192.344ZM217.633 115L203.857 91.768V115H196.369V81.4H205.633L219.409 104.68V81.4H226.849V115H217.633ZM248.181 102.568V96.664H263.541V115H257.013L256.965 111.16C254.853 113.656 251.205 115.528 246.645 115.528C238.101 115.528 230.421 108.904 230.421 98.056C230.421 87.112 238.437 80.68 247.989 80.68C255.861 80.68 262.341 84.952 263.493 91.864H255.765C254.901 88.984 251.973 87.112 247.989 87.112C242.277 87.112 238.389 91.24 238.389 98.056C238.389 105.016 242.373 109.144 247.893 109.144C252.117 109.144 255.765 106.408 256.293 102.616V102.568H248.181ZM268.255 115V81.4H276.079V115H268.255ZM302.563 115L288.787 91.768V115H281.299V81.4H290.563L304.339 104.68V81.4H311.779V115H302.563ZM341.847 108.76V115H317.031V81.4H341.559V87.64H324.663V94.696H340.215V100.792H324.663V108.76H341.847Z" fill="#0A0A0A"/>
<path d="M19.625 81L155 81.5075V115H3L19.625 81Z" fill="#0A0A0A"/>
</svg>
