<?xml version="1.0" standalone="no"?>
<!DOCTYPE svg PUBLIC "-//W3C//DTD SVG 20010904//EN"
 "http://www.w3.org/TR/2001/REC-SVG-20010904/DTD/svg10.dtd">
<svg version="1.0" xmlns="http://www.w3.org/2000/svg"
 width="888.000000pt" height="888.000000pt" viewBox="0 0 888.000000 888.000000"
 preserveAspectRatio="xMidYMid meet">
<metadata>
Created by potrace 1.14, written by Peter Selinger 2001-2017
</metadata>
<g transform="translate(0.000000,888.000000) scale(0.100000,-0.100000)"
fill="#000000" stroke="none">
<path d="M3313 7767 c-611 -612 -1127 -1127 -1147 -1146 l-35 -34 0 374 c1
206 0 393 0 417 l-1 42 -122 -124 c-68 -69 -298 -303 -513 -521 -214 -218
-504 -512 -643 -653 l-252 -257 0 -71 0 -72 166 -166 c167 -166 167 -166 148
-187 -10 -12 -108 -110 -216 -219 l-198 -197 1488 -1487 1487 -1487 -1 -185
c-1 -102 -3 -187 -6 -189 -2 -2 -366 358 -808 800 l-804 805 -71 -70 -71 -70
881 -881 880 -880 -1 -462 -1 -462 190 -193 191 -192 192 0 192 0 0 225 c0
123 3 229 7 235 3 5 3 10 -2 10 -4 0 -8 16 -8 35 0 19 2 35 6 35 3 0 42 -38
88 -84 l82 -84 99 99 c54 54 102 99 107 99 4 0 7 -128 7 -285 l-1 -285 191 0
191 0 192 193 191 192 1 483 0 483 859 859 860 858 -71 72 -71 71 -788 -788
c-552 -552 -788 -782 -789 -768 -1 18 0 189 1 292 l0 41 1480 1480 c814 814
1480 1482 1480 1485 0 3 -94 99 -210 214 -115 116 -210 213 -210 217 0 4 74
81 165 172 l166 164 0 58 c1 31 0 64 0 73 -1 9 -85 102 -188 207 -104 105
-375 380 -603 612 -228 232 -486 493 -573 582 -87 88 -160 158 -163 156 -2 -3
-5 -191 -5 -417 l0 -412 -1151 1150 c-633 633 -1151 1151 -1152 1151 0 -1
-501 -501 -1113 -1113z m2267 -605 l1148 -1148 1 -62 1 -62 -168 0 -167 0
-430 -430 -430 -430 -3 -146 -3 -147 -453 -453 -453 -452 0 -1022 0 -1021 -98
-99 -98 -99 -94 94 -93 94 0 73 c-1 40 -1 502 -1 1026 l-1 953 -454 455 -454
454 0 143 0 144 -431 431 -432 432 -168 0 -168 0 0 64 1 65 1145 1145 c631
630 1148 1146 1150 1146 3 0 521 -517 1153 -1148z m-3567 -2852 l790 -790 108
107 108 108 126 0 c70 0 129 -3 132 -8 9 -15 8 -85 -1 -80 -5 4 -6 1 -2 -5 4
-7 9 -27 10 -47 3 -30 30 -61 211 -241 113 -113 210 -216 214 -228 15 -39 -6
-72 -121 -186 l-115 -115 0 -125 c-1 -69 -2 -131 -2 -138 -1 -11 -2401 2380
-2401 2392 0 5 142 146 148 146 3 0 360 -356 795 -790z m5699 720 c37 -38 68
-73 68 -77 0 -11 -2383 -2393 -2389 -2388 -2 3 -3 62 -3 132 l1 128 -119 120
c-168 168 -175 137 95 407 l215 215 0 84 0 84 132 0 132 0 107 -108 108 -108
788 790 c433 434 790 790 792 790 3 1 35 -30 73 -69z m-3287 -3999 c3 -2 46
37 96 88 50 51 93 90 97 87 3 -3 5 -81 5 -172 l0 -167 -107 -106 -107 -105
-85 85 c-84 86 -84 86 -85 140 0 67 0 299 0 318 1 8 42 -26 91 -75 50 -49 93
-91 95 -93z"/>
<path d="M4340 7220 c-4 -3 -10 -45 -13 -93 -4 -48 -9 -92 -11 -96 -3 -4 -8
-22 -11 -40 -16 -94 -77 -228 -154 -341 -46 -68 -181 -210 -200 -210 -6 0 -11
-4 -11 -9 0 -5 -28 -26 -63 -48 -165 -104 -328 -155 -519 -162 l-27 -1 -3 -95
c-2 -58 1 -95 7 -96 6 -1 28 -2 50 -4 51 -3 138 -16 146 -21 4 -2 24 -6 45
-10 71 -11 268 -98 295 -130 6 -8 16 -14 21 -14 6 0 33 -19 62 -42 214 -176
348 -421 372 -678 11 -118 -2 -105 107 -107 l97 -1 1 51 c0 29 2 61 4 72 2 11
7 40 10 64 9 59 51 182 90 262 76 158 232 326 378 410 45 26 159 80 177 84 8
2 33 10 55 18 51 18 176 40 238 40 35 1 47 5 48 17 2 58 0 172 -3 175 -1 2
-39 6 -83 10 -238 20 -456 123 -625 295 -76 78 -160 190 -160 214 0 8 -4 16
-10 18 -18 6 -82 178 -101 272 -10 50 -19 115 -19 144 0 28 -3 53 -7 53 -25 4
-176 3 -183 -1z"/>
</g>
</svg>
