<svg width="128" height="128" viewBox="0 0 128 128" fill="none" xmlns="http://www.w3.org/2000/svg">
<rect width="128" height="128" rx="10" fill="#FFFCE4"/>
<rect x="48.2273" y="74.6119" width="22.3962" height="22.3962" transform="rotate(-45 48.2273 74.6119)" fill="#0A0A0A"/>
<rect x="36.168" y="50.1973" width="39.4505" height="39.4505" transform="rotate(-45 36.168 50.1973)" fill="#0A0A0A"/>
<rect x="20.2129" y="57.7919" width="62.0839" height="62.0839" transform="rotate(-45 20.2129 57.7919)" stroke="#0A0A0A" stroke-width="3.36402"/>
<path d="M32.9724 79.1534L63.9214 110.102L94.8704 79.1534" stroke="#0A0A0A" stroke-width="1.68201"/>
<path d="M37.0687 28.6932L19.0115 47.0326V48.7254L44.9687 74.6826L47.508 72.1433H50.6115V74.1183L55.6901 79.1969V80.0434L52.8687 82.8648V111.643L57.383 116.158H61.8973V71.0148L51.1758 60.2933V56.9076L41.0187 46.7504H37.0687V28.6932Z" fill="url(#paint0_linear_101_2)"/>
<path d="M91.2404 28.6933L109.298 47.0326V48.7255L83.3404 74.6827L80.8011 72.1434H77.6975V74.1184L72.6189 79.197V80.0434L75.4404 82.8648V111.643L70.9261 116.158H66.4118V71.0148L77.1332 60.2934V56.9076L87.2904 46.7505H91.2404V28.6933Z" fill="url(#paint1_linear_101_2)"/>
<path d="M77.1332 45.1438V42.8626C73.9936 42.8626 70.9825 41.6153 68.7625 39.3953C66.5424 37.1752 65.2952 34.1642 65.2952 31.0246H63.014C63.014 32.5792 62.7078 34.1185 62.1129 35.5548C61.518 36.991 60.646 38.296 59.5467 39.3953C58.4475 40.4946 57.1424 41.3665 55.7062 41.9614C54.2699 42.5564 52.7306 42.8626 51.176 42.8626V45.1438C52.7306 45.1438 54.2699 45.45 55.7062 46.0449C57.1424 46.6399 58.4475 47.5118 59.5467 48.6111C60.646 49.7103 61.518 51.0154 62.1129 52.4516C62.7078 53.8878 63.014 55.4272 63.014 56.9818H65.2952C65.2952 53.8422 66.5424 50.8311 68.7625 48.6111C70.9825 46.391 73.9936 45.1438 77.1332 45.1438Z" fill="url(#paint2_linear_101_2)"/>
<path d="M105.13 46.718L97.6376 39.2709L97.1489 38.7852V43.9658L99.918 46.718V49.3083L89.656 59.5076V64.6882L105.13 49.3083V46.718Z" fill="#0A0A0A"/>
<path d="M77.2091 62.6697L68.4626 71.4162V73.6028L77.2091 64.8564V62.6697Z" fill="#0A0A0A"/>
<path d="M74.0133 109.43V103.879V100.851L71.8266 98.6647V107.243L68.1262 110.943V112.625H70.8174L74.0133 109.43Z" fill="#0A0A0A"/>
<path d="M78.2183 60.9877V57.4774V57.2434L79.9003 55.6053V59.3496L78.2183 60.9877Z" fill="#0A0A0A"/>
<path d="M83.6008 55.6053V52.095V51.861L85.2828 50.2228V53.9671L83.6008 55.6053Z" fill="#0A0A0A"/>
<path d="M80.9097 58.2965V54.7862V54.5522L82.5917 52.9141V56.6584L80.9097 58.2965Z" fill="#0A0A0A"/>
<path d="M86.292 52.914V49.4038V49.1697L87.974 47.5316V51.2759L86.292 52.914Z" fill="#0A0A0A"/>
<path d="M23.3849 46.718L30.8778 39.2709L31.3665 38.7852V43.9658L28.5973 46.718V49.3083L38.8594 59.5076V64.6882L23.3849 49.3083V46.718Z" fill="#0A0A0A"/>
<path d="M51.3063 62.6697L60.0527 71.4162V73.6028L51.3063 64.8564V62.6697Z" fill="#0A0A0A"/>
<path d="M54.5019 109.43V103.879V100.851L56.6885 98.6647V107.243L60.3889 110.943V112.625H57.6977L54.5019 109.43Z" fill="#0A0A0A"/>
<path d="M50.2971 60.9877V57.4774V57.2434L48.6151 55.6053V59.3496L50.2971 60.9877Z" fill="#0A0A0A"/>
<path d="M44.9146 55.6053V52.095V51.861L43.2325 50.2228V53.9671L44.9146 55.6053Z" fill="#0A0A0A"/>
<path d="M47.6057 58.2965V54.7862V54.5522L45.9237 52.9141V56.6584L47.6057 58.2965Z" fill="#0A0A0A"/>
<path d="M42.2234 52.914V49.4038V49.1697L40.5414 47.5316V51.2759L42.2234 52.914Z" fill="#0A0A0A"/>
<defs>
<linearGradient id="paint0_linear_101_2" x1="40.4544" y1="28.6932" x2="40.4544" y2="116.158" gradientUnits="userSpaceOnUse">
<stop stop-color="#FFED9D"/>
<stop offset="1" stop-color="#F5D64E"/>
</linearGradient>
<linearGradient id="paint1_linear_101_2" x1="87.8547" y1="28.6933" x2="87.8547" y2="116.158" gradientUnits="userSpaceOnUse">
<stop stop-color="#FFED9D"/>
<stop offset="1" stop-color="#F5D64E"/>
</linearGradient>
<linearGradient id="paint2_linear_101_2" x1="64.1546" y1="31.0246" x2="64.1546" y2="56.9818" gradientUnits="userSpaceOnUse">
<stop stop-color="#FFED9D"/>
<stop offset="1" stop-color="#F5D64E"/>
</linearGradient>
</defs>
</svg>
